<svg xmlns="http://www.w3.org/2000/svg" xmlns:xlink="http://www.w3.org/1999/xlink" width="200" zoomAndPan="magnify" viewBox="0 0 1440 809.999993" height="100" preserveAspectRatio="xMidYMid meet" version="1.0"><defs><clipPath id="6be6c60998"><path d="M 222 270.21875 L 1273 270.21875 L 1273 648.21875 L 222 648.21875 Z M 222 270.21875 " clip-rule="nonzero"/></clipPath></defs><g clip-path="url(#6be6c60998)"><path fill="#9b7750" d="M 411.269531 270.039062 L 417.625 276.308594 L 239.425781 454.738281 L 412.613281 454.738281 L 597.167969 270.039062 L 603.523438 276.308594 L 425.324219 454.738281 L 598.511719 454.738281 L 783.066406 270.039062 L 789.421875 276.308594 L 611.128906 454.738281 L 784.40625 454.738281 L 968.960938 270.039062 L 975.316406 276.308594 L 797.027344 454.738281 L 1272.019531 454.738281 L 1272.019531 463.695312 L 797.027344 463.695312 L 975.316406 642.125 L 968.960938 648.398438 L 784.40625 463.695312 L 611.128906 463.695312 L 789.421875 642.125 L 783.066406 648.398438 L 598.511719 463.695312 L 425.324219 463.695312 L 603.523438 642.125 L 597.167969 648.398438 L 412.613281 463.695312 L 239.425781 463.695312 L 417.625 642.125 L 411.269531 648.398438 L 222.242188 459.21875 Z M 411.269531 270.039062 " fill-opacity="1" fill-rule="nonzero"/></g></svg>