<svg xmlns="http://www.w3.org/2000/svg" xmlns:xlink="http://www.w3.org/1999/xlink" width="200" zoomAndPan="magnify" viewBox="0 0 1440 809.999993" preserveAspectRatio="xMidYMid meet" version="1.0"><defs><clipPath id="09fa1f49e9"><path d="M 609 494 L 831 494 L 831 715.082031 L 609 715.082031 Z M 609 494 " clip-rule="nonzero"/></clipPath><clipPath id="d4f347ef75"><path d="M 715 94.914062 L 725 94.914062 L 725 464 L 715 464 Z M 715 94.914062 " clip-rule="nonzero"/></clipPath></defs><g clip-path="url(#09fa1f49e9)"><path fill="#9b7750" d="M 720.019531 494.539062 C 780.816406 494.539062 830.238281 543.96875 830.238281 604.769531 C 830.238281 665.566406 780.816406 715.082031 720.019531 715.082031 C 659.226562 715.082031 609.800781 665.65625 609.800781 604.855469 C 609.800781 544.054688 659.222656 494.539062 720.019531 494.539062 Z M 720.019531 706.335938 C 776.003906 706.335938 821.492188 660.84375 821.492188 604.855469 C 821.492188 548.867188 776.003906 503.375 720.019531 503.375 C 664.035156 503.375 618.550781 548.867188 618.550781 604.855469 C 618.550781 660.84375 664.035156 706.335938 720.019531 706.335938 Z M 720.019531 706.335938 " fill-opacity="1" fill-rule="nonzero"/></g><path fill="#9b7750" d="M 861.292969 609.140625 L 1229.910156 609.140625 L 1229.910156 600.394531 L 861.292969 600.394531 Z M 861.292969 609.140625 " fill-opacity="1" fill-rule="nonzero"/><path fill="#9b7750" d="M 210.128906 609.140625 L 578.746094 609.140625 L 578.746094 600.394531 L 210.128906 600.394531 Z M 210.128906 609.140625 " fill-opacity="1" fill-rule="nonzero"/><g clip-path="url(#d4f347ef75)"><path fill="#9b7750" d="M 715.644531 463.570312 L 724.394531 463.570312 L 724.394531 94.921875 L 715.644531 94.921875 Z M 715.644531 463.570312 " fill-opacity="1" fill-rule="nonzero"/></g><path fill="#9b7750" d="M 816.785156 501.816406 L 822.972656 508.003906 L 1029.691406 301.273438 L 1023.503906 295.085938 Z M 816.785156 501.816406 " fill-opacity="1" fill-rule="nonzero"/><path fill="#9b7750" d="M 410.382812 301.285156 L 617.09375 508.023438 L 623.28125 501.835938 L 416.566406 295.097656 Z M 410.382812 301.285156 " fill-opacity="1" fill-rule="nonzero"/><path fill="#9b7750" d="M 814.390625 368.59375 L 822.457031 371.980469 L 865.289062 269.847656 L 857.222656 266.464844 Z M 814.390625 368.59375 " fill-opacity="1" fill-rule="nonzero"/><path fill="#9b7750" d="M 770.644531 472.832031 L 778.710938 476.214844 L 807.945312 406.515625 L 799.878906 403.132812 Z M 770.644531 472.832031 " fill-opacity="1" fill-rule="nonzero"/><path fill="#9b7750" d="M 953.792969 504.46875 L 957.101562 512.566406 L 1059.605469 470.644531 L 1056.296875 462.546875 Z M 953.792969 504.46875 " fill-opacity="1" fill-rule="nonzero"/><path fill="#9b7750" d="M 849.140625 547.253906 L 852.449219 555.347656 L 922.324219 526.773438 L 919.015625 518.675781 Z M 849.140625 547.253906 " fill-opacity="1" fill-rule="nonzero"/><path fill="#9b7750" d="M 577.820312 268.523438 L 619.769531 371.023438 L 627.867188 367.707031 L 585.917969 265.207031 Z M 577.820312 268.523438 " fill-opacity="1" fill-rule="nonzero"/><path fill="#9b7750" d="M 633.957031 405.820312 L 662.585938 475.769531 L 670.679688 472.457031 L 642.054688 402.503906 Z M 633.957031 405.820312 " fill-opacity="1" fill-rule="nonzero"/><path fill="#9b7750" d="M 381.636719 467.59375 L 483.761719 510.4375 L 487.144531 502.371094 L 385.023438 459.527344 Z M 381.636719 467.59375 " fill-opacity="1" fill-rule="nonzero"/><path fill="#9b7750" d="M 518.398438 524.96875 L 588.09375 554.207031 L 591.476562 546.140625 L 521.78125 516.902344 Z M 518.398438 524.96875 " fill-opacity="1" fill-rule="nonzero"/></svg>