<svg xmlns="http://www.w3.org/2000/svg" xmlns:xlink="http://www.w3.org/1999/xlink" width="1920" zoomAndPan="magnify" viewBox="0 0 1440 809.999993" height="1080" preserveAspectRatio="xMidYMid meet" version="1.0"><defs><clipPath id="5a99143988"><path d="M 573 82 L 821.132812 82 L 821.132812 331 L 573 331 Z M 573 82 " clip-rule="nonzero"/></clipPath></defs><g clip-path="url(#5a99143988)"><path fill="#9b7750" d="M 697.007812 82.351562 C 628.617188 82.351562 573 137.953125 573 206.324219 C 573 274.691406 628.617188 330.292969 697.007812 330.292969 C 765.394531 330.292969 821.011719 274.691406 821.011719 206.324219 C 821.011719 137.953125 765.394531 82.351562 697.007812 82.351562 Z M 697.007812 324.269531 C 631.929688 324.269531 579.027344 271.378906 579.027344 206.324219 C 579.027344 141.265625 631.929688 88.375 697.007812 88.375 C 762.082031 88.375 814.984375 141.265625 814.984375 206.324219 C 814.984375 271.378906 762.082031 324.269531 697.007812 324.269531 Z M 697.007812 324.269531 " fill-opacity="1" fill-rule="nonzero"/></g><path fill="#9b7750" d="M 697.007812 415.046875 C 651.210938 415.046875 613.914062 452.273438 613.914062 498.054688 C 613.914062 543.835938 651.152344 581.125 697.007812 581.125 C 742.859375 581.125 780.097656 543.898438 780.097656 498.054688 C 780.097656 452.335938 742.800781 415.046875 697.007812 415.046875 Z M 697.007812 575.101562 C 654.527344 575.101562 619.941406 540.523438 619.941406 498.054688 C 619.941406 455.585938 654.527344 421.070312 697.007812 421.070312 C 739.484375 421.070312 774.070312 455.648438 774.070312 498.054688 C 774.070312 540.582031 739.484375 575.101562 697.007812 575.101562 Z M 697.007812 575.101562 " fill-opacity="1" fill-rule="nonzero"/><path fill="#9b7750" d="M 697.007812 665.9375 C 663.625 665.9375 636.511719 693.046875 636.511719 726.417969 C 636.511719 759.789062 663.625 786.898438 697.007812 786.898438 C 730.386719 786.898438 757.503906 759.789062 757.503906 726.417969 C 757.503906 693.046875 730.386719 665.9375 697.007812 665.9375 Z M 697.007812 780.875 C 666.9375 780.875 642.535156 756.417969 642.535156 726.417969 C 642.535156 696.417969 667 671.964844 697.007812 671.964844 C 727.011719 671.964844 751.476562 696.417969 751.476562 726.417969 C 751.476562 756.417969 727.074219 780.875 697.007812 780.875 Z M 697.007812 780.875 " fill-opacity="1" fill-rule="nonzero"/></svg>