<svg xmlns="http://www.w3.org/2000/svg" xmlns:xlink="http://www.w3.org/1999/xlink" width="200" zoomAndPan="magnify" viewBox="0 0 1440 809.999993" height="100" preserveAspectRatio="xMidYMid meet" version="1.0"><defs><clipPath id="dc7bdad23e"><path d="M 222 270.21875 L 1272 270.21875 L 1272 648.21875 L 222 648.21875 Z M 222 270.21875 " clip-rule="nonzero"/></clipPath></defs><g clip-path="url(#dc7bdad23e)"><path fill="#9b7750" d="M 1082.867188 270.039062 L 1076.511719 276.308594 L 1254.714844 454.738281 L 1081.527344 454.738281 L 896.972656 270.039062 L 890.617188 276.308594 L 1068.816406 454.738281 L 895.628906 454.738281 L 711.074219 270.039062 L 704.71875 276.308594 L 883.007812 454.738281 L 709.730469 454.738281 L 525.175781 270.039062 L 518.820312 276.308594 L 697.109375 454.738281 L 222.121094 454.738281 L 222.121094 463.695312 L 697.109375 463.695312 L 518.820312 642.125 L 525.175781 648.398438 L 709.730469 463.695312 L 883.007812 463.695312 L 704.71875 642.125 L 711.074219 648.398438 L 895.628906 463.695312 L 1068.816406 463.695312 L 890.617188 642.125 L 896.972656 648.398438 L 1081.527344 463.695312 L 1254.714844 463.695312 L 1076.511719 642.125 L 1082.867188 648.398438 L 1271.898438 459.21875 Z M 1082.867188 270.039062 " fill-opacity="1" fill-rule="nonzero"/></g></svg>