<svg xmlns="http://www.w3.org/2000/svg" xmlns:xlink="http://www.w3.org/1999/xlink" width="200" zoomAndPan="magnify" viewBox="0 0 1440 809.999993" preserveAspectRatio="xMidYMid meet" version="1.0"><defs><clipPath id="6ac37fb2b8"><path d="M 609 94.914062 L 831 94.914062 L 831 316 L 609 316 Z M 609 94.914062 " clip-rule="nonzero"/></clipPath><clipPath id="f2d695b729"><path d="M 715 346 L 725 346 L 725 715.164062 L 715 715.164062 Z M 715 346 " clip-rule="nonzero"/></clipPath></defs><g clip-path="url(#6ac37fb2b8)"><path fill="#9b7750" d="M 720.019531 315.457031 C 780.816406 315.457031 830.238281 266.03125 830.238281 205.230469 C 830.238281 144.429688 780.816406 94.914062 720.019531 94.914062 C 659.226562 94.914062 609.800781 144.34375 609.800781 205.144531 C 609.800781 265.941406 659.222656 315.457031 720.019531 315.457031 Z M 720.019531 103.664062 C 776.003906 103.664062 821.492188 149.152344 821.492188 205.144531 C 821.492188 261.132812 776.003906 306.621094 720.019531 306.621094 C 664.035156 306.621094 618.550781 261.132812 618.550781 205.144531 C 618.550781 149.152344 664.035156 103.664062 720.019531 103.664062 Z M 720.019531 103.664062 " fill-opacity="1" fill-rule="nonzero"/></g><path fill="#9b7750" d="M 861.292969 200.855469 L 1229.910156 200.855469 L 1229.910156 209.605469 L 861.292969 209.605469 Z M 861.292969 200.855469 " fill-opacity="1" fill-rule="nonzero"/><path fill="#9b7750" d="M 210.128906 200.855469 L 578.746094 200.855469 L 578.746094 209.605469 L 210.128906 209.605469 Z M 210.128906 200.855469 " fill-opacity="1" fill-rule="nonzero"/><g clip-path="url(#f2d695b729)"><path fill="#9b7750" d="M 715.644531 346.425781 L 724.394531 346.425781 L 724.394531 715.078125 L 715.644531 715.078125 Z M 715.644531 346.425781 " fill-opacity="1" fill-rule="nonzero"/></g><path fill="#9b7750" d="M 816.785156 308.179688 L 822.972656 301.996094 L 1029.691406 508.726562 L 1023.503906 514.910156 Z M 816.785156 308.179688 " fill-opacity="1" fill-rule="nonzero"/><path fill="#9b7750" d="M 410.382812 508.714844 L 617.09375 301.976562 L 623.28125 308.164062 L 416.566406 514.898438 Z M 410.382812 508.714844 " fill-opacity="1" fill-rule="nonzero"/><path fill="#9b7750" d="M 814.390625 441.402344 L 822.457031 438.019531 L 865.289062 540.152344 L 857.222656 543.535156 Z M 814.390625 441.402344 " fill-opacity="1" fill-rule="nonzero"/><path fill="#9b7750" d="M 770.644531 337.167969 L 778.710938 333.78125 L 807.945312 403.484375 L 799.878906 406.867188 Z M 770.644531 337.167969 " fill-opacity="1" fill-rule="nonzero"/><path fill="#9b7750" d="M 953.792969 305.527344 L 957.101562 297.429688 L 1059.605469 339.351562 L 1056.296875 347.449219 Z M 953.792969 305.527344 " fill-opacity="1" fill-rule="nonzero"/><path fill="#9b7750" d="M 849.140625 262.746094 L 852.449219 254.648438 L 922.324219 283.226562 L 919.015625 291.320312 Z M 849.140625 262.746094 " fill-opacity="1" fill-rule="nonzero"/><path fill="#9b7750" d="M 577.820312 541.476562 L 619.769531 438.976562 L 627.867188 442.289062 L 585.917969 544.789062 Z M 577.820312 541.476562 " fill-opacity="1" fill-rule="nonzero"/><path fill="#9b7750" d="M 633.957031 404.179688 L 662.585938 334.226562 L 670.679688 337.539062 L 642.054688 407.492188 Z M 633.957031 404.179688 " fill-opacity="1" fill-rule="nonzero"/><path fill="#9b7750" d="M 381.636719 342.402344 L 483.761719 299.5625 L 487.144531 307.628906 L 385.023438 350.46875 Z M 381.636719 342.402344 " fill-opacity="1" fill-rule="nonzero"/><path fill="#9b7750" d="M 518.398438 285.027344 L 588.09375 255.789062 L 591.476562 263.859375 L 521.78125 293.097656 Z M 518.398438 285.027344 " fill-opacity="1" fill-rule="nonzero"/></svg>